<?xml version="1.0" encoding="UTF-8" standalone="no"?><!DOCTYPE svg PUBLIC "-//W3C//DTD SVG 1.1//EN" "http://www.w3.org/Graphics/SVG/1.1/DTD/svg11.dtd"><svg width="100%" height="100%" viewBox="0 0 586 313" version="1.1" xmlns="http://www.w3.org/2000/svg" xmlns:xlink="http://www.w3.org/1999/xlink" xml:space="preserve" xmlns:serif="http://www.serif.com/" style="fill-rule:evenodd;clip-rule:evenodd;stroke-linejoin:round;stroke-miterlimit:2;"><rect x="0" y="0" width="585.874" height="312.376" style="fill:#e6edf3;"/><g><path d="M126.029,98.43l0,-3.15l-18,0c-2.583,0 -4.446,1.861 -4.446,4.447l0,125.441c0,2.585 1.863,4.446 4.446,4.446l18,0l0,-3.15l-17.28,0c-1.008,0 -1.728,-0.72 -1.728,-1.728l0,-124.577c0,-1.008 0.72,-1.729 1.728,-1.729l17.28,0Z" style="fill:#7c5cff;fill-rule:nonzero;"/><path d="M213.869,148.405l-12.366,-0l0,38.601c-6.914,5.041 -14.405,9.65 -24.489,9.65c-15.99,0 -21.465,-10.658 -21.465,-39.897c0,-34.712 7.347,-40.761 28.812,-40.761c7.347,0 16.566,0.288 25.626,1.152l1.294,-9.486c-8.483,-2.161 -17.556,-3.024 -27.64,-3.024c-30.68,0 -41.466,11.79 -41.466,51.255c0,35.72 9.06,51.831 31.382,51.831c13.685,0 23.913,-6.613 29.672,-12.366l1.438,10.494l9.202,0l0,-57.449Z" style="fill:#7c5cff;fill-rule:nonzero;"/><path d="M230.879,95.28l0,3.15l17.28,0c1.008,0 1.728,0.721 1.728,1.729l0,124.577c0,1.008 -0.72,1.728 -1.728,1.728l-17.28,0l0,3.15l18,0c2.584,0 4.446,-1.861 4.446,-4.446l0,-125.441c0,-2.586 -1.862,-4.447 -4.446,-4.447l-18,0Z" style="fill:#7c5cff;fill-rule:nonzero;"/><path d="M282.752,122.57l-2.841,0l-0,71.995c-0,7.735 4.745,12.005 12.004,12.005c2.142,-0 6.069,-0.237 7.616,-0.71l-0.357,-1.894l-6.902,0c-6.069,0 -9.52,-3.332 -9.52,-9.52l0,-71.876Z" style="fill:#0b0f14;fill-rule:nonzero;"/><path d="M355.342,148.75l-3.093,0l-20.105,48.076l-2.618,6.426l-1.546,0l-2.617,-6.188l-20.106,-48.314l-3.093,0l23.436,56.159c0.357,0.592 0.833,0.947 1.547,0.947l1.19,-0l-1.785,4.522c-3.212,8.33 -7.138,15.113 -16.655,18.802l0.714,1.666c10.231,-2.975 14.395,-9.996 18.44,-19.397l26.291,-62.699Z" style="fill:#0b0f14;fill-rule:nonzero;"/><path d="M396.405,147.322c-7.856,0 -15.237,3.913 -23.689,11.769l-0.474,-10.341l-2.129,0l-0,82.096l2.841,-0l0,-18.921c0,-4.165 0.119,-6.89 -0.357,-10.934c8.452,4.044 15.952,6.293 23.808,6.293c15,-0 20.698,-8.316 20.698,-29.974c0,-21.671 -5.698,-29.988 -20.698,-29.988Zm0,57.239c-7.499,0 -13.927,-1.904 -23.451,-5.713l0,-37.257c9.524,-8.095 15.952,-11.546 23.451,-11.546c12.738,-0 17.738,7.26 17.738,27.258c-0,19.997 -5,27.258 -17.738,27.258Z" style="fill:#0b0f14;fill-rule:nonzero;"/><path d="M467.093,147.322c-8.928,0 -17.975,4.508 -27.854,11.886c0.474,-3.213 0.593,-6.902 0.593,-11.057l-0.238,-25.581l-2.841,0l-0,83.286l2.841,-0l0,-44.149c10.952,-7.735 18.333,-11.662 26.904,-11.662c8.809,-0 13.095,4.165 13.095,13.209l-0,42.602l2.841,-0l0,-42.959c0,-10.234 -5.222,-15.575 -15.341,-15.575Z" style="fill:#0b0f14;fill-rule:nonzero;"/></g></svg>