<?xml version="1.0" encoding="UTF-8" standalone="no"?><!DOCTYPE svg PUBLIC "-//W3C//DTD SVG 1.1//EN" "http://www.w3.org/Graphics/SVG/1.1/DTD/svg11.dtd"><svg width="100%" height="100%" viewBox="0 0 313 313" version="1.1" xmlns="http://www.w3.org/2000/svg" xmlns:xlink="http://www.w3.org/1999/xlink" xml:space="preserve" xmlns:serif="http://www.serif.com/" style="fill-rule:evenodd;clip-rule:evenodd;stroke-linejoin:round;stroke-miterlimit:2;"><rect x="0" y="-0" width="312.2" height="312.232" style="fill:#e6edf3;"/><g><path d="M103.675,99.362l-0,-3.15l-18,-0c-2.584,-0 -4.446,1.861 -4.446,4.446l-0,125.442c-0,2.584 1.862,4.446 4.446,4.446l18,-0l-0,-3.15l-17.28,-0c-1.008,-0 -1.728,-0.72 -1.728,-1.728l-0,-124.577c-0,-1.009 0.72,-1.729 1.728,-1.729l17.28,-0Z" style="fill:#7c5cff;fill-rule:nonzero;"/><path d="M191.515,149.337l-12.366,-0l-0,38.601c-6.915,5.041 -14.405,9.65 -24.489,9.65c-15.991,-0 -21.465,-10.659 -21.465,-39.897c-0,-34.712 7.347,-40.761 28.811,-40.761c7.347,-0 16.567,0.287 25.627,1.152l1.294,-9.486c-8.484,-2.161 -17.557,-3.024 -27.641,-3.024c-30.68,-0 -41.465,11.789 -41.465,51.255c-0,35.72 9.06,51.831 31.381,51.831c13.686,-0 23.914,-6.613 29.672,-12.366l1.438,10.494l9.203,-0l-0,-57.449Z" style="fill:#7c5cff;fill-rule:nonzero;"/><path d="M208.525,96.212l-0,3.15l17.28,-0c1.008,-0 1.728,0.72 1.728,1.729l-0,124.577c-0,1.008 -0.72,1.728 -1.728,1.728l-17.28,-0l-0,3.15l18,-0c2.584,-0 4.446,-1.862 4.446,-4.446l0,-125.442c0,-2.585 -1.862,-4.446 -4.446,-4.446l-18,-0Z" style="fill:#7c5cff;fill-rule:nonzero;"/></g></svg>