<?xml version="1.0" encoding="UTF-8" standalone="no"?><!DOCTYPE svg PUBLIC "-//W3C//DTD SVG 1.1//EN" "http://www.w3.org/Graphics/SVG/1.1/DTD/svg11.dtd"><svg width="100%" height="100%" viewBox="0 0 379 136" version="1.1" xmlns="http://www.w3.org/2000/svg" xmlns:xlink="http://www.w3.org/1999/xlink" xml:space="preserve" xmlns:serif="http://www.serif.com/" style="fill-rule:evenodd;clip-rule:evenodd;stroke-linejoin:round;stroke-miterlimit:2;"><g><path d="M22.446,3.15l0,-3.15l-18,0c-2.584,0 -4.446,1.861 -4.446,4.447l0,125.441c0,2.585 1.862,4.446 4.446,4.446l18,0l0,-3.15l-17.28,0c-1.008,0 -1.728,-0.72 -1.728,-1.728l0,-124.577c0,-1.008 0.72,-1.729 1.728,-1.729l17.28,0Z" style="fill:#7c5cff;fill-rule:nonzero;"/><path d="M110.286,53.125l-12.366,-0l0,38.601c-6.915,5.041 -14.405,9.65 -24.489,9.65c-15.991,0 -21.465,-10.658 -21.465,-39.897c0,-34.712 7.347,-40.761 28.811,-40.761c7.347,0 16.567,0.288 25.627,1.152l1.294,-9.486c-8.484,-2.161 -17.557,-3.024 -27.641,-3.024c-30.68,0 -41.465,11.79 -41.465,51.255c0,35.72 9.06,51.831 31.381,51.831c13.686,0 23.914,-6.613 29.672,-12.366l1.438,10.494l9.203,0l0,-57.449Z" style="fill:#7c5cff;fill-rule:nonzero;"/><path d="M127.296,0l0,3.15l17.28,0c1.008,0 1.728,0.721 1.728,1.729l0,124.577c0,1.008 -0.72,1.728 -1.728,1.728l-17.28,0l0,3.15l18,0c2.584,0 4.446,-1.861 4.446,-4.446l0,-125.441c0,-2.586 -1.862,-4.447 -4.446,-4.447l-18,-0Z" style="fill:#7c5cff;fill-rule:nonzero;"/><path d="M179.169,27.29l-2.842,0l0,71.995c0,7.735 4.746,12.005 12.005,12.005c2.142,-0 6.069,-0.237 7.616,-0.71l-0.357,-1.894l-6.902,0c-6.069,0 -9.52,-3.332 -9.52,-9.52l-0,-71.876Z" style="fill:#0b0f14;fill-rule:nonzero;"/><path d="M251.759,53.47l-3.093,0l-20.106,48.076l-2.617,6.426l-1.547,0l-2.617,-6.188l-20.105,-48.314l-3.094,0l23.437,56.159c0.357,0.592 0.833,0.947 1.547,0.947l1.189,-0l-1.784,4.522c-3.212,8.33 -7.138,15.113 -16.656,18.802l0.714,1.666c10.231,-2.975 14.395,-9.996 18.44,-19.397l26.292,-62.699Z" style="fill:#0b0f14;fill-rule:nonzero;"/><path d="M292.822,52.042c-7.857,0 -15.237,3.913 -23.689,11.769l-0.475,-10.341l-2.129,0l0,82.096l2.842,-0l-0,-18.921c-0,-4.165 0.119,-6.89 -0.357,-10.934c8.452,4.044 15.951,6.293 23.808,6.293c14.999,-0 20.698,-8.316 20.698,-29.974c-0,-21.671 -5.699,-29.988 -20.698,-29.988Zm-0,57.239c-7.5,0 -13.928,-1.904 -23.451,-5.713l-0,-37.257c9.523,-8.095 15.951,-11.546 23.451,-11.546c12.737,-0 17.737,7.26 17.737,27.258c0,19.997 -5,27.258 -17.737,27.258Z" style="fill:#0b0f14;fill-rule:nonzero;"/><path d="M363.51,52.042c-8.929,0 -17.976,4.508 -27.855,11.886c0.475,-3.213 0.594,-6.902 0.594,-11.057l-0.238,-25.581l-2.842,0l0,83.286l2.842,-0l-0,-44.149c10.952,-7.735 18.332,-11.662 26.903,-11.662c8.81,-0 13.095,4.165 13.095,13.209l0,42.602l2.842,-0l-0,-42.959c-0,-10.234 -5.223,-15.575 -15.341,-15.575Z" style="fill:#0b0f14;fill-rule:nonzero;"/></g></svg>