<?xml version="1.0" encoding="UTF-8" standalone="no"?><!DOCTYPE svg PUBLIC "-//W3C//DTD SVG 1.1//EN" "http://www.w3.org/Graphics/SVG/1.1/DTD/svg11.dtd"><svg width="100%" height="100%" viewBox="0 0 512 512" version="1.1" xmlns="http://www.w3.org/2000/svg" xmlns:xlink="http://www.w3.org/1999/xlink" xml:space="preserve" xmlns:serif="http://www.serif.com/" style="fill-rule:evenodd;clip-rule:evenodd;stroke-linejoin:round;stroke-miterlimit:2;"><path d="M76.748,37.112l-0,-10.77l-61.546,-0c-8.835,-0 -15.202,6.364 -15.202,15.203l-0,428.911c-0,8.838 6.367,15.202 15.202,15.202l61.546,0l-0,-10.77l-59.084,-0c-3.447,-0 -5.909,-2.462 -5.909,-5.909l0,-425.956c0,-3.447 2.462,-5.911 5.909,-5.911l59.084,0Z" style="fill:#7c5cff;fill-rule:nonzero;"/><path d="M377.091,207.987l-42.282,0l0,131.985c-23.642,17.237 -49.255,32.996 -83.734,32.996c-54.675,-0 -73.392,-36.444 -73.392,-136.417c-0,-118.688 25.121,-139.37 98.512,-139.37c25.121,-0 56.645,0.983 87.622,3.938l4.425,-32.434c-29.008,-7.39 -60.03,-10.34 -94.509,-10.34c-104.901,0 -141.779,40.312 -141.779,175.251c0,122.135 30.978,177.223 107.299,177.223c46.794,-0 81.765,-22.613 101.456,-42.283l4.917,35.882l31.465,-0l0,-196.431Z" style="fill:#7c5cff;fill-rule:nonzero;"/><path d="M435.252,26.342l0,10.77l59.084,0c3.447,0 5.909,2.464 5.909,5.911l-0,425.956c-0,3.447 -2.462,5.909 -5.909,5.909l-59.084,-0l0,10.77l61.546,0c8.835,0 15.202,-6.364 15.202,-15.202l-0,-428.911c-0,-8.839 -6.367,-15.203 -15.202,-15.203l-61.546,-0Z" style="fill:#7c5cff;fill-rule:nonzero;"/></svg>