<?xml version="1.0" encoding="UTF-8" standalone="no"?><!DOCTYPE svg PUBLIC "-//W3C//DTD SVG 1.1//EN" "http://www.w3.org/Graphics/SVG/1.1/DTD/svg11.dtd"><svg width="100%" height="100%" viewBox="0 0 114 34" version="1.1" xmlns="http://www.w3.org/2000/svg" xmlns:xlink="http://www.w3.org/1999/xlink" xml:space="preserve" xmlns:serif="http://www.serif.com/" style="fill-rule:evenodd;clip-rule:evenodd;stroke-linejoin:round;stroke-miterlimit:2;"><g transform="matrix(1,0,0,1,-10.0957,0.884544)"><g transform="matrix(36,0,0,36,6.60147,26.7612)"><path d="M0.278,-0.724l-0,-0.044l-0.136,0c-0.026,0 -0.045,0.019 -0.045,0.046l0,0.841c0,0.031 0.019,0.046 0.045,0.046l0.136,-0l-0,-0.044l-0.107,0c-0.008,0 -0.014,-0.006 -0.014,-0.014l-0,-0.817c-0,-0.008 0.006,-0.014 0.014,-0.014l0.107,-0Z" style="fill:#2f81f7;fill-rule:nonzero;"/></g><g transform="matrix(36,0,0,36,18.2295,26.7612)"><path d="M0.279,-0.702c-0.154,0 -0.224,0.021 -0.224,0.182c0,0.105 0.036,0.167 0.136,0.192l0.143,0.036c0.06,0.015 0.087,0.034 0.087,0.114c0,0.095 -0.033,0.111 -0.139,0.111c-0.057,0.001 -0.094,-0.001 -0.211,-0.005l-0.006,0.065c0.094,0.017 0.169,0.019 0.214,0.019c0.161,-0 0.231,-0.029 0.231,-0.188c-0,-0.107 -0.033,-0.168 -0.139,-0.194l-0.14,-0.035c-0.061,-0.015 -0.087,-0.037 -0.087,-0.113c-0,-0.102 0.039,-0.105 0.139,-0.105c0.064,-0 0.137,0.002 0.195,0.005l0.006,-0.064c-0.069,-0.015 -0.14,-0.019 -0.205,-0.02Z" style="fill:#2f81f7;fill-rule:nonzero;"/></g><g transform="matrix(36,0,0,36,38.4255,26.7612)"><path d="M0.044,-0.768l0,0.044l0.108,-0c0.008,-0 0.014,0.006 0.014,0.014l0,0.817c0,0.008 -0.006,0.014 -0.014,0.014l-0.108,0l0,0.044l0.136,-0c0.027,-0 0.046,-0.019 0.046,-0.046l-0,-0.841c-0,-0.027 -0.019,-0.046 -0.046,-0.046l-0.136,0Z" style="fill:#2f81f7;fill-rule:nonzero;"/></g><g transform="matrix(30,0,0,30,50.0535,26.7612)"><path d="M0.283,-0.497c-0.163,0 -0.223,0.069 -0.223,0.255c0,0.186 0.06,0.254 0.223,0.254c0.163,-0 0.222,-0.068 0.222,-0.254c-0,-0.186 -0.059,-0.255 -0.222,-0.255Zm-0,0.055c0.117,-0 0.156,0.047 0.156,0.2c0,0.153 -0.039,0.2 -0.156,0.2c-0.117,0 -0.156,-0.047 -0.156,-0.2c-0,-0.153 0.039,-0.2 0.156,-0.2Z" style="fill:#e6edf3;fill-rule:nonzero;"/></g><g transform="matrix(30,0,0,30,67.0035,26.7612)"><path d="M0.375,-0.497l-0.021,0c-0.068,0 -0.14,0.035 -0.214,0.094l-0.007,-0.081l-0.049,0l0,0.484l0.064,-0l-0,-0.363c0.081,-0.047 0.135,-0.074 0.195,-0.074l0.024,-0l0.008,-0.06Z" style="fill:#e6edf3;fill-rule:nonzero;"/></g><g transform="matrix(30,0,0,30,78.8235,26.7612)"><path d="M0.216,-0.251l0.183,0.251l0.074,-0l-0.178,-0.239c-0.008,-0.012 -0.022,-0.028 -0.03,-0.034l-0,-0.002c0.008,-0.005 0.022,-0.018 0.03,-0.028l0.162,-0.181l-0.075,0l-0.167,0.185l-0.072,0c0.004,-0.027 0.006,-0.052 0.006,-0.083l-0.002,-0.318l-0.063,0l0,0.7l0.063,-0l-0,-0.17c-0,-0.026 -0.001,-0.053 -0.004,-0.081l0.073,-0Z" style="fill:#e6edf3;fill-rule:nonzero;"/></g><g transform="matrix(30,0,0,30,93.2835,26.7612)"><path d="M0.283,-0.497c-0.163,0 -0.223,0.069 -0.223,0.255c0,0.186 0.06,0.254 0.223,0.254c0.163,-0 0.222,-0.068 0.222,-0.254c-0,-0.186 -0.059,-0.255 -0.222,-0.255Zm-0,0.055c0.117,-0 0.156,0.047 0.156,0.2c0,0.153 -0.039,0.2 -0.156,0.2c-0.117,0 -0.156,-0.047 -0.156,-0.2c-0,-0.153 0.039,-0.2 0.156,-0.2Z" style="fill:#e6edf3;fill-rule:nonzero;"/></g><g transform="matrix(30,0,0,30,110.233,26.7612)"><path d="M0.24,-0.497c-0.127,-0.001 -0.186,0.016 -0.186,0.132c0,0.081 0.034,0.117 0.108,0.132l0.148,0.028c0.047,0.009 0.079,0.022 0.079,0.079c0,0.071 -0.037,0.082 -0.15,0.083c-0.063,0.001 -0.116,-0.001 -0.169,-0.006l-0.005,0.047c0.079,0.012 0.145,0.013 0.185,0.013c0.134,-0 0.201,-0.017 0.201,-0.137c-0,-0.081 -0.037,-0.115 -0.112,-0.13l-0.149,-0.028c-0.048,-0.01 -0.074,-0.023 -0.074,-0.081c-0,-0.076 0.036,-0.078 0.132,-0.077c0.06,-0 0.124,0.003 0.184,0.006l0.006,-0.046c-0.06,-0.009 -0.137,-0.014 -0.198,-0.015Z" style="fill:#e6edf3;fill-rule:nonzero;"/></g></g></svg>